<svg xmlns="http://www.w3.org/2000/svg" viewBox="0 0 256 256">
  <defs>
    <linearGradient id="bookGradient" x1="0%" y1="0%" x2="100%" y2="100%">
      <stop offset="0%" style="stop-color:#3B82F6;stop-opacity:1" />
      <stop offset="100%" style="stop-color:#A855F7;stop-opacity:1" />
    </linearGradient>
  </defs>
  <path d="M64 32C55.2 32 48 39.2 48 48v160c0 8.8 7.2 16 16 16h128c8.8 0 16-7.2 16-16V48c0-8.8-7.2-16-16-16H64z" fill="url(#bookGradient)"/>
  <rect x="72" y="56" width="112" height="8" rx="4" fill="#ffffff" opacity="0.9"/>
  <rect x="72" y="80" width="88" height="6" rx="3" fill="#ffffff" opacity="0.7"/>
  <rect x="72" y="96" width="96" height="6" rx="3" fill="#ffffff" opacity="0.7"/>
  <rect x="72" y="112" width="80" height="6" rx="3" fill="#ffffff" opacity="0.7"/>
  <path d="M180 160l12 4-12 4-4 12-4-12-12-4 12-4 4-12z" fill="#FFD700"/>
  <path d="M200 140l8 2.5-8 2.5-2.5 8-2.5-8-8-2.5 8-2.5 2.5-8z" fill="#FFF" opacity="0.9"/>
  <path d="M168 180l6 2-6 2-2 6-2-6-6-2 6-2 2-6z" fill="#FFF" opacity="0.8"/>
</svg>